# xmcd
#
# Track frame offsets: 
#        180
#        22953
#        39078
#        49053
#        70578
#        81453
#        96378
#        107103
#        125553
#        138678
#        162078
#        173328
#        190878
#        209253
#        222978
#
# Disc length: 3191 seconds
#
# Revision: 0
# Processed by: cddbd v1.5.1PL2 Copyright (c) Steve Scherf et al.
# Submitted via: ExactAudioCopy v0.95a5
#
DISCID=ce0c750f
DTITLE=Geraldino - Zurück aus dem All
DYEAR=1900
DGENRE=Pop
TTITLE0=Die Zotteltrottelolgo
TTITLE1=Dinosaurier
TTITLE2=Fünf Würstchen
TTITLE3=Was ist den Liebe?
TTITLE4=Paddl Hoo
TTITLE5=Meierling
TTITLE6=Paul Paulsen
TTITLE7=Träume ich?
TTITLE8=Hosentaschen Hosentaschen
TTITLE9=Die Geschichte vom Maulwurf
TTITLE10=Bil der kleine Dache
TTITLE11=Ein Tag im Bett
TTITLE12=Spaghettiessen
TTITLE13=Da schwimmt ein Fisch
TTITLE14=Plomster
EXTD=
EXTT0=
EXTT1=
EXTT2=
EXTT3=
EXTT4=
EXTT5=
EXTT6=
EXTT7=
EXTT8=
EXTT9=
EXTT10=
EXTT11=
EXTT12=
EXTT13=
EXTT14=
PLAYORDER=
